<svg width="24" height="24" viewBox="0 0 24 24" fill="none" xmlns="http://www.w3.org/2000/svg">
<path fill-rule="evenodd" clip-rule="evenodd" d="M18.5303 6.53033C18.8232 6.23744 18.8232 5.76256 18.5303 5.46967C18.2374 5.17678 17.7626 5.17678 17.4697 5.46967L12 10.9393L6.53033 5.46967C6.23744 5.17678 5.76256 5.17678 5.46967 5.46967C5.17678 5.76256 5.17678 6.23744 5.46967 6.53033L10.9393 12L5.46967 17.4697C5.17678 17.7626 5.17678 18.2374 5.46967 18.5303C5.76256 18.8232 6.23744 18.8232 6.53033 18.5303L12 13.0607L17.4697 18.5303C17.7626 18.8232 18.2374 18.8232 18.5303 18.5303C18.8232 18.2374 18.8232 17.7626 18.5303 17.4697L13.0607 12L18.5303 6.53033Z" fill="#FFBE42"/>
<path d="M18.5303 5.46967L17.8232 6.17678L17.8232 6.17678L18.5303 5.46967ZM18.5303 6.53033L17.8232 5.82322V5.82322L18.5303 6.53033ZM17.4697 5.46967L18.1768 6.17678L18.1768 6.17678L17.4697 5.46967ZM12 10.9393L11.2929 11.6464C11.4804 11.834 11.7348 11.9393 12 11.9393C12.2652 11.9393 12.5196 11.834 12.7071 11.6464L12 10.9393ZM6.53033 5.46967L5.82322 6.17678L5.82322 6.17678L6.53033 5.46967ZM5.46967 5.46967L6.17678 6.17678L6.17678 6.17678L5.46967 5.46967ZM5.46967 6.53033L6.17678 5.82322L6.17678 5.82322L5.46967 6.53033ZM10.9393 12L11.6464 12.7071C11.834 12.5196 11.9393 12.2652 11.9393 12C11.9393 11.7348 11.834 11.4804 11.6464 11.2929L10.9393 12ZM5.46967 17.4697L6.17678 18.1768L6.17678 18.1768L5.46967 17.4697ZM5.46967 18.5303L6.17678 17.8232L6.17678 17.8232L5.46967 18.5303ZM6.53033 18.5303L5.82322 17.8232H5.82322L6.53033 18.5303ZM12 13.0607L12.7071 12.3536C12.3166 11.963 11.6834 11.963 11.2929 12.3536L12 13.0607ZM17.4697 18.5303L18.1768 17.8232L18.1768 17.8232L17.4697 18.5303ZM18.5303 18.5303L17.8232 17.8232L17.8232 17.8232L18.5303 18.5303ZM18.5303 17.4697L17.8232 18.1768L17.8232 18.1768L18.5303 17.4697ZM13.0607 12L12.3536 11.2929C11.963 11.6834 11.963 12.3166 12.3536 12.7071L13.0607 12ZM17.8232 6.17678C17.7256 6.07915 17.7256 5.92085 17.8232 5.82322L19.2374 7.23744C19.9209 6.55402 19.9209 5.44598 19.2374 4.76256L17.8232 6.17678ZM18.1768 6.17678C18.0791 6.27441 17.9209 6.27441 17.8232 6.17678L19.2374 4.76256C18.554 4.07915 17.446 4.07915 16.7626 4.76256L18.1768 6.17678ZM12.7071 11.6464L18.1768 6.17678L16.7626 4.76256L11.2929 10.2322L12.7071 11.6464ZM5.82322 6.17678L11.2929 11.6464L12.7071 10.2322L7.23744 4.76256L5.82322 6.17678ZM6.17678 6.17678C6.07915 6.27441 5.92085 6.27441 5.82322 6.17678L7.23744 4.76256C6.55402 4.07915 5.44598 4.07915 4.76256 4.76256L6.17678 6.17678ZM6.17678 5.82322C6.27441 5.92085 6.27441 6.07915 6.17678 6.17678L4.76256 4.76256C4.07915 5.44598 4.07915 6.55402 4.76256 7.23744L6.17678 5.82322ZM11.6464 11.2929L6.17678 5.82322L4.76256 7.23744L10.2322 12.7071L11.6464 11.2929ZM6.17678 18.1768L11.6464 12.7071L10.2322 11.2929L4.76256 16.7626L6.17678 18.1768ZM6.17678 17.8232C6.27441 17.9209 6.27441 18.0791 6.17678 18.1768L4.76256 16.7626C4.07915 17.446 4.07915 18.554 4.76256 19.2374L6.17678 17.8232ZM5.82322 17.8232C5.92085 17.7256 6.07915 17.7256 6.17678 17.8232L4.76256 19.2374C5.44598 19.9209 6.55402 19.9209 7.23744 19.2374L5.82322 17.8232ZM11.2929 12.3536L5.82322 17.8232L7.23744 19.2374L12.7071 13.7678L11.2929 12.3536ZM18.1768 17.8232L12.7071 12.3536L11.2929 13.7678L16.7626 19.2374L18.1768 17.8232ZM17.8232 17.8232C17.9209 17.7256 18.0791 17.7256 18.1768 17.8232L16.7626 19.2374C17.446 19.9209 18.554 19.9209 19.2374 19.2374L17.8232 17.8232ZM17.8232 18.1768C17.7256 18.0791 17.7256 17.9209 17.8232 17.8232L19.2374 19.2374C19.9209 18.554 19.9209 17.446 19.2374 16.7626L17.8232 18.1768ZM12.3536 12.7071L17.8232 18.1768L19.2374 16.7626L13.7678 11.2929L12.3536 12.7071ZM17.8232 5.82322L12.3536 11.2929L13.7678 12.7071L19.2374 7.23744L17.8232 5.82322Z" fill="#FFBE42"/>
</svg>
